<mxfile host="app.diagrams.net" modified="2023-04-28T14:47:00.009Z" agent="Mozilla/5.0 (Windows NT 10.0; Win64; x64) AppleWebKit/537.36 (KHTML, like Gecko) Chrome/112.0.0.0 Safari/537.36 Edg/112.0.1722.64" version="21.1.8" etag="_Ten2jwV7qKiIqi70sxD" type="github">
  <diagram name="PÃ¡gina-1" id="1fZaV1gTbWyoA8DKSJsp">
    <mxGraphModel>
      <root>
        <mxCell id="0" />
        <mxCell id="1" parent="0" />
      </root>
    </mxGraphModel>
  </diagram>
</mxfile>
